<svg width="149" height="141" viewBox="0 0 149 141" fill="none" xmlns="http://www.w3.org/2000/svg">
<path d="M88.9074 139.683C123.158 133.332 149 104.772 149 70.5C149 54.4534 143.335 39.6589 133.794 27.81C133.58 29.154 133.198 30.4825 132.645 31.7955C131.827 33.934 130.641 35.8669 129.087 37.5941C127.532 39.2391 125.651 40.6374 123.442 41.7889C121.233 42.8581 118.738 43.475 115.957 43.6395C114.485 53.016 113.053 61.6934 111.662 69.6716C110.272 77.5676 108.472 84.4355 106.263 90.2753C104.055 96.0327 101.11 100.556 97.4285 103.847C96.6132 104.592 95.737 105.253 94.8 105.829C92.5789 118.238 90.6147 129.523 88.9074 139.683Z" fill="black"/>
<path d="M96.6189 95.7328C97.9541 94.0774 99.1238 92.217 100.128 90.1519C102.009 86.3684 103.441 82.1325 104.423 77.4443C105.486 72.756 106.345 68.1089 107 63.5029L108.472 53.016C108.799 50.8775 109.086 48.9857 109.331 47.3407C109.658 45.6957 109.904 44.2975 110.067 43.146C108.933 42.7355 107.824 42.1479 106.74 41.3832C104.836 51.3379 102.889 61.678 100.899 72.4035C99.3891 80.5452 97.9622 88.3216 96.6189 95.7328Z" fill="black"/>
<path d="M102.459 28.5858C102.095 28.093 101.728 27.6001 101.355 27.1072C99.8826 24.9687 98.2056 23.077 96.3241 21.432C94.5244 19.787 92.193 18.9645 89.3299 18.9645C87.2848 18.9645 85.4033 19.3757 83.6854 20.1982C81.9675 21.0207 80.4951 22.1311 79.268 23.5294C78.0409 24.8454 77.0593 26.4081 76.3231 28.2176C75.6686 29.9449 75.3414 31.7544 75.3414 33.6461C75.3414 36.8539 76.1185 39.3625 77.6728 41.172C79.3089 42.9815 81.6812 43.8862 84.7898 43.8862C87.0803 43.8862 88.7982 43.3516 89.9434 42.2824C91.0887 41.2131 91.6613 39.856 91.6613 38.211C91.6613 36.7305 91.2114 35.579 90.3115 34.7565C89.4117 33.8517 88.2664 33.3994 86.8758 33.3994C85.5669 33.3994 84.4216 33.8929 83.44 34.8799C82.4584 35.8669 81.9266 37.0595 81.8448 38.4577C80.6996 38.4577 80.1269 37.3474 80.1269 35.1266C80.1269 32.4124 81.0677 30.0682 82.9492 28.0942C84.8307 26.1202 86.9985 25.1332 89.4526 25.1332C91.0069 25.1332 92.5611 25.9557 94.1154 27.6007C95.6697 29.1635 97.2649 31.0141 98.9009 33.1526C99.635 34.0313 100.377 34.9024 101.126 35.7661L96.7974 59.079C95.3685 66.5861 94.034 73.6151 92.7938 80.1658C92.3229 79.1083 91.7 78.16 90.9251 77.3209C89.9434 76.0871 88.7164 75.1412 87.2439 74.4832C85.7714 73.743 84.1353 73.3729 82.3356 73.3729C79.5543 73.3729 77.0593 73.8252 74.8506 74.73C72.7237 75.6347 70.924 76.9096 69.4515 78.5546C68.522 79.5412 67.7391 80.6424 67.103 81.8584C65.6132 76.1716 64.0471 70.1647 62.4047 63.8377C54.8606 34.3294 49.9723 14.6117 47.7396 4.68478C56.045 1.65874 65.0678 0 74.5 0C85.9543 0 96.8049 2.4462 106.5 6.81665L102.459 28.5858Z" fill="black"/>
<path d="M107.867 35.5141C108.863 36.3518 109.965 37.004 111.172 37.4707C112.644 30.315 114.525 24.8042 116.816 20.9385C118.163 18.617 119.821 16.9781 121.79 16.0216C118.975 13.8306 115.986 11.8311 112.848 10.0444C111.222 18.2236 109.561 26.7135 107.867 35.5141Z" fill="black"/>
<path d="M37.6795 9.19832C15.1748 21.3292 0 44.2376 0 70.5C0 86.8531 5.88371 101.906 15.7571 113.866C18.3206 102.022 22.5107 82.1204 28.3275 54.1616C32.5641 33.514 35.6814 18.5262 37.6795 9.19832Z" fill="black"/>
<path d="M21.5575 120.101C35.0596 133.006 53.7933 141 74.5 141C74.9362 141 75.3714 140.996 75.8058 140.989C75.0726 138.57 74.3393 135.8 73.606 132.681L70.6085 121.26C55.9889 65.001 46.9964 29.8391 43.6307 15.7744C40.6858 29.3104 38.2667 40.89 36.3735 50.5132C30.5345 78.4822 25.5959 101.678 21.5575 120.101Z" fill="black"/>
<path d="M73.5884 106.4C74.1849 106.733 74.8102 107.033 75.4641 107.301C77.6728 108.288 80.2087 108.782 83.0719 108.782C84.6172 108.782 86.083 108.671 87.4695 108.451C85.0543 121.379 83.2729 131.095 82.1253 137.598C79.8511 129.595 77.0055 119.196 73.5884 106.4Z" fill="black"/>
<path d="M89.9228 95.3718C89.5013 97.611 89.0941 99.778 88.7011 101.873C86.8937 102.531 84.8946 102.859 82.7038 102.859C80.9859 102.859 79.3907 102.53 77.9182 101.873C76.5276 101.215 75.3005 100.351 74.2371 99.2816C73.2554 98.2124 72.4783 96.9786 71.9056 95.5804C71.4148 94.0999 71.1694 92.5782 71.1694 91.0155C71.1694 87.89 72.1102 85.2169 73.9916 82.9961C75.8731 80.6931 78.5318 79.5416 81.9675 79.5416C85.8941 79.5416 88.1028 81.3511 88.5936 84.9701C87.7756 84.8056 87.2439 84.7234 86.9985 84.7234C85.3624 84.7234 83.9717 85.2991 82.8265 86.4506C81.763 87.6021 81.2313 89.0004 81.2313 90.6454C81.2313 92.1259 81.763 93.4007 82.8265 94.47C83.9717 95.457 85.3624 95.9505 86.9985 95.9505C88.1067 95.9505 89.0815 95.7576 89.9228 95.3718Z" fill="black"/>
<path d="M117.184 37.7175C120.293 37.1417 122.951 35.579 125.16 33.0292C127.451 30.4795 128.596 27.5596 128.596 24.2696C128.596 22.1311 127.9 21.0619 126.51 21.0619C124.628 21.0619 122.829 22.6246 121.111 25.7501C119.475 28.8756 118.166 32.8647 117.184 37.7175Z" fill="black"/>
</svg>
