<svg width="149" height="141" viewBox="0 0 149 141" fill="none" xmlns="http://www.w3.org/2000/svg">
<path d="M99.9032 90.0425L99.9041 90.0406C101.775 86.2785 103.2 82.0632 104.178 77.393L104.179 77.3889C105.241 72.7073 106.099 68.067 106.752 63.4681L99.9032 90.0425ZM99.9032 90.0425C99.0662 91.7639 98.1141 93.3403 97.0472 94.7724C98.3371 87.6643 99.703 80.2232 101.145 72.4491C103.11 61.859 105.032 51.6447 106.914 41.8062C107.852 42.4361 108.811 42.9378 109.791 43.3101C109.629 44.4167 109.394 45.7438 109.086 47.292L109.085 47.2919L109.084 47.3039C108.838 48.9485 108.552 50.8399 108.225 52.9782L108.224 52.9812L106.752 63.4677L99.9032 90.0425ZM129.268 37.7659L129.272 37.7613C130.846 36.0126 132.048 34.0548 132.877 31.8887C133.361 30.7381 133.717 29.5747 133.944 28.3986C143.243 40.1324 148.75 54.708 148.75 70.5C148.75 104.522 123.182 132.91 89.2134 139.371C90.9015 129.334 92.8392 118.204 95.0265 105.983C95.9408 105.412 96.7975 104.762 97.5964 104.032C101.313 100.709 104.278 96.1497 106.497 90.3648L106.497 90.3637C108.713 84.5059 110.516 77.6223 111.909 69.715L111.909 69.7146C113.29 61.7909 114.711 53.1782 116.173 43.8764C118.902 43.6928 121.363 43.0733 123.551 42.0139L123.551 42.014L123.558 42.0106C125.789 40.8475 127.693 39.433 129.268 37.7659ZM83.2627 34.7036C82.2979 35.6737 81.7476 36.8385 81.6151 38.1886C81.47 38.1632 81.3422 38.1128 81.229 38.0396C81.0582 37.9292 80.9062 37.7577 80.7786 37.5104C80.5197 37.0084 80.3769 36.2236 80.3769 35.1266C80.3769 32.4769 81.2927 30.1945 83.1301 28.2667C84.9702 26.3362 87.0748 25.3832 89.4526 25.3832C90.9118 25.3832 92.4049 26.1544 93.9337 27.7724L93.9336 27.7725L93.9382 27.777C95.4834 29.3307 97.0715 31.1728 98.7024 33.3045L98.7022 33.3047L98.7091 33.3129C99.4184 34.1619 100.135 35.0039 100.858 35.8388L96.5518 59.0322C95.1766 66.2574 93.8888 73.0396 92.6884 79.3789C92.2591 78.5706 91.7346 77.8301 91.1149 77.158C90.1099 75.8971 88.8541 74.9299 87.3511 74.2573C85.842 73.4997 84.1686 73.1229 82.3356 73.1229C79.5271 73.1229 76.9991 73.5797 74.7558 74.4986L74.7527 74.4999C72.5947 75.4179 70.765 76.7131 69.2673 78.3855C68.4662 79.2361 67.7724 80.1705 67.1859 81.1883C65.7439 75.6817 64.2308 69.8773 62.6467 63.7751C55.1567 34.478 50.2854 14.8356 48.0319 4.8447C56.253 1.87615 65.1755 0.25 74.5 0.25C85.8481 0.25 96.6007 2.65852 106.218 6.96418L102.318 27.9751C102.067 27.637 101.813 27.299 101.558 26.9609C100.075 24.8086 98.3864 22.9033 96.4908 21.2456C94.6374 19.5525 92.2428 18.7145 89.3299 18.7145C87.2502 18.7145 85.3315 19.1329 83.5774 19.9728C81.831 20.8089 80.332 21.9387 79.0826 23.3617C77.8343 24.7012 76.8377 26.2894 76.0915 28.1234L76.0914 28.1234L76.0893 28.129C75.4239 29.8853 75.0914 31.7249 75.0914 33.6461C75.0914 36.8929 75.8783 39.4665 77.4832 41.3349L77.4831 41.3349L77.4874 41.3397C79.1832 43.2152 81.6312 44.1362 84.7898 44.1362C87.1147 44.1362 88.905 43.5939 90.114 42.4651C91.3127 41.346 91.9113 39.9214 91.9113 38.211C91.9113 36.6789 91.4442 35.4555 90.4845 34.5759C89.534 33.6224 88.3242 33.1494 86.8758 33.1494C85.4958 33.1494 84.288 33.6727 83.2627 34.7036ZM36.6188 50.5615C38.4616 41.1944 40.8029 29.9724 43.6429 16.8953C47.1942 31.6213 56.1024 66.4316 70.3665 121.323L70.3667 121.323L73.3626 132.738C73.3629 132.739 73.3632 132.74 73.3634 132.742C74.0655 135.728 74.7679 138.395 75.4709 140.744C75.1477 140.748 74.8241 140.75 74.5 140.75C53.9101 140.75 35.2802 132.821 21.8318 120.017C25.8648 101.615 30.7937 78.4642 36.6183 50.5643L36.6188 50.5615ZM86.4106 81.0921C87.3838 81.8895 88.0175 83.068 88.2924 84.6562C87.6692 84.5371 87.2321 84.4734 86.9985 84.4734C85.2964 84.4734 83.8418 85.0753 82.6492 86.2743L82.6491 86.2742L82.6428 86.281C81.5344 87.4811 80.9813 88.9409 80.9813 90.6454C80.9813 92.1933 81.5401 93.5312 82.6492 94.6463L82.656 94.6531L82.6633 94.6594C83.8578 95.6888 85.3078 96.2005 86.9985 96.2005C87.9526 96.2005 88.8183 96.0611 89.592 95.778C89.2101 97.807 88.84 99.7764 88.4818 101.686C86.7404 102.301 84.8152 102.609 82.7038 102.609C81.0197 102.609 79.4604 102.287 78.0227 101.645C76.6603 101 75.4591 100.155 74.4179 99.109C73.4605 98.0652 72.7012 96.8607 72.1402 95.4935C71.6596 94.041 71.4194 92.5487 71.4194 91.0155C71.4194 87.9445 72.3421 85.3298 74.1824 83.1577L74.1852 83.1543C76.0116 80.9188 78.5938 79.7916 81.9675 79.7916C83.8946 79.7916 85.3651 80.2356 86.4106 81.0921ZM124.974 32.8622L124.971 32.8656C122.884 35.2745 120.397 36.7821 117.505 37.3988C118.474 32.7285 119.751 28.887 121.331 25.8683C123.043 22.7538 124.779 21.3119 126.51 21.3119C127.13 21.3119 127.568 21.5437 127.865 22.0001C128.174 22.4751 128.346 23.2195 128.346 24.2696C128.346 27.4952 127.225 30.3562 124.974 32.8622ZM108.14 35.4162C109.801 26.79 111.43 18.4626 113.025 10.434C115.929 12.1046 118.701 13.9584 121.326 15.9783C119.459 16.9801 117.886 18.597 116.6 20.8119C114.322 24.6584 112.453 30.1017 110.987 37.1274C109.958 36.6988 109.009 36.1286 108.14 35.4162ZM0.25 70.5C0.25 44.5239 15.1526 21.8343 37.3213 9.67766C35.3192 19.0401 32.2397 33.8515 28.0827 54.1112C22.348 81.6752 18.1946 101.407 15.6223 113.307C5.98126 101.454 0.25 86.6099 0.25 70.5ZM83.0719 109.032C84.5001 109.032 85.8626 108.938 87.1591 108.751C84.9053 120.818 83.2085 130.062 82.0688 136.483C79.8798 128.748 77.1831 118.885 73.9787 106.893C74.4262 107.123 74.8886 107.335 75.3657 107.531C77.611 108.534 80.1815 109.032 83.0719 109.032Z" fill="black" stroke="black" stroke-width="0.5"/>
</svg>
